<svg id="Layer_1" data-name="Layer 1" xmlns="http://www.w3.org/2000/svg" viewBox="0 0 1025 1025"><defs><style>.cls-1{fill:#1080c2;stroke:#000;}.cls-1,.cls-3,.cls-4{stroke-miterlimit:10;}.cls-2,.cls-3,.cls-4{fill:#fff;}.cls-3{stroke:#fff;stroke-width:3px;}.cls-4{stroke:#231f20;stroke-width:0.25px;}</style></defs><rect class="cls-1" x="0.5" y="0.5" width="1024" height="1024"/><path class="cls-2" d="M7049.12,7154.72a455.29,455.29,0,0,1,64.78-36.49,405.25,405.25,0,0,1,70.53-24.71c3-.78,6.09-1.44,9.13-2.16s6.13-1.27,9.21-1.84c6.18-1,12.39-1.9,18.6-2.54s12.42-1.32,18.64-1.87l9.34-.64c3.12-.2,6.24-.3,9.35-.46q18.71-.77,37.42-.21c6.23.17,12.46.48,18.69.89,3.12.2,6.23.45,9.35.72l4.68.45,2.34.24,1.19.14.55.07s0,0,.07,0l.58,0c12.86,1.68,25.6,4,38.21,6.43,6.28,1.18,12.61,2.46,18.67,3.26a40.65,40.65,0,0,0,4.29.36,8.79,8.79,0,0,0,1.48-.08c.12,0,.1-.06-.29.15a2.44,2.44,0,0,0-.39.28,3.13,3.13,0,0,0-.49.52,3.38,3.38,0,0,0-.64,1.62,2.06,2.06,0,0,0,0,.7,1.36,1.36,0,0,0,.08.44,1.42,1.42,0,0,0,.07.22.94.94,0,0,1,0,.1c0,.06,0,0,0,0a1.15,1.15,0,0,0-.15-.2,12.55,12.55,0,0,0-1.22-1.24c-1-.9-2.18-1.83-3.41-2.74-4.94-3.65-10.35-7.12-15.69-10.59l-16.19-10.4q-16.2-10.43-32.23-21.22T7294,7031.86c-2.62-1.9-5.24-3.82-7.85-5.86a57,57,0,0,1-7.77-7.08l-.95-1.21c-.31-.43-.62-.94-.92-1.41a18,18,0,0,1-.84-1.76c-.12-.36-.22-.73-.32-1.1l-.14-.56-.06-.65a11.64,11.64,0,0,1,0-1.32,12.59,12.59,0,0,1,.23-1.39,5.26,5.26,0,0,1,.46-1.28,7.58,7.58,0,0,1,.61-1.17,10.74,10.74,0,0,1,3-2.92,19.89,19.89,0,0,1,5.66-2.5,42.25,42.25,0,0,1,5.27-1.14,98.3,98.3,0,0,1,20.15-.58,168.49,168.49,0,0,1,19.61,2.36A184.21,184.21,0,0,1,7368,7013.2a203.94,203.94,0,0,1,34.56,18.67c5.43,3.55,10.74,7.42,15.88,10.88a33.81,33.81,0,0,0,3.55,2.13,2.56,2.56,0,0,0,.4.16h-.16l-.18,0a4,4,0,0,0-.56,0,4.41,4.41,0,0,0-.46.1l-.54.2a3.77,3.77,0,0,0-1.88,2,3.33,3.33,0,0,0-.24,1.07,2.52,2.52,0,0,0,0,.57c.08.5.1.37,0,.24a12.24,12.24,0,0,0-.9-1.47c-.39-.58-.84-1.19-1.29-1.81l-2.87-3.77c-3.93-5.1-7.85-10.4-11.4-16a149.91,149.91,0,0,1-9.63-17.32,137,137,0,0,1-7.14-18.51,142.63,142.63,0,0,1-4.82-19.28,51.1,51.1,0,0,1-.77-10.51,20.92,20.92,0,0,1,1.06-6,12.3,12.3,0,0,1,.68-1.63c.15-.28.28-.55.44-.83l.56-.83a11.06,11.06,0,0,1,1.37-1.58,10.83,10.83,0,0,1,1.78-1.3,10.59,10.59,0,0,1,3.94-1.31,13.75,13.75,0,0,1,3.52,0,24,24,0,0,1,5.73,1.54,54.16,54.16,0,0,1,9.26,4.93,140.79,140.79,0,0,1,15.76,12.11c4.94,4.3,9.67,8.79,14.25,13.41a297.61,297.61,0,0,1,25.72,29.39,255.28,255.28,0,0,1,21.19,32.9l-.8-1.07c22.48,22,45,44,68.15,65.23,5.67,5.2,12.31,10.87,16.42,19a28.16,28.16,0,0,1-.19,26.77,37,37,0,0,1-3.6,5.65,35.89,35.89,0,0,1-4.61,4.93,38.67,38.67,0,0,1-11.37,6.93,41.34,41.34,0,0,1-6.34,1.92c-1.07.25-2.17.42-3.25.58l-2.92.41-11.7,1.62c-7.8,1.07-15.58,2.32-23.39,3.31l-5.87.69-2.94.33-1.46.17-1.22.19a19.45,19.45,0,0,0-8.84,3.86,19.76,19.76,0,0,0-3.47,3.49,20.53,20.53,0,0,0-1.41,2c-.23.35-.39.73-.59,1.09a8.23,8.23,0,0,0-.54,1.12l-.48,1.16c-.15.39-.25.79-.38,1.19a20.1,20.1,0,0,0-.57,2.44c-.1.41-.1.83-.16,1.24a10.69,10.69,0,0,0-.1,1.26c0,.85,0,1.66,0,2.61a43.15,43.15,0,0,0,2,10.77,40.91,40.91,0,0,0,4.82,9.85,50.84,50.84,0,0,0,3.4,4.38q1.88,2.07,4,4c2.81,2.54,5.9,4.85,9.07,7.27a165.13,165.13,0,0,1,17.79,15.92,205.82,205.82,0,0,1,28.47,37.84,206.87,206.87,0,0,0-30.53-35.73,159.12,159.12,0,0,0-18.24-14.57c-3.23-2.19-6.59-4.4-9.77-7a61.82,61.82,0,0,1-4.6-4.14,49,49,0,0,1-4.11-4.74,46.06,46.06,0,0,1-6.1-11,49.45,49.45,0,0,1-3-12.26c-.13-1-.16-2.16-.21-3.29a16,16,0,0,1,.05-1.69c0-.56,0-1.13.12-1.69a27.19,27.19,0,0,1,.6-3.34c.15-.55.26-1.11.44-1.65l.56-1.61a15.34,15.34,0,0,1,.66-1.57c.25-.51.46-1.05.74-1.54a28.18,28.18,0,0,1,1.79-2.92A27.62,27.62,0,0,1,7488,7169.6l1.69-.35,1.45-.24,2.92-.48,5.83-.93c7.79-1.16,15.62-2.07,23.41-3.17l11.71-1.62,2.92-.4c.87-.14,1.72-.27,2.56-.46a34.15,34.15,0,0,0,5-1.5,29.92,29.92,0,0,0,8.71-5.3,27.83,27.83,0,0,0,3.44-3.68,29.31,29.31,0,0,0,2.75-4.3,20.53,20.53,0,0,0,2.46-9.29,20.15,20.15,0,0,0-2.32-9.28,37.65,37.65,0,0,0-6.17-8.5c-2.49-2.67-5.36-5.19-8.3-7.9-23.29-21.37-45.86-43.39-68.38-65.45l-.48-.48-.32-.59a245.83,245.83,0,0,0-20.45-31.74,290.22,290.22,0,0,0-24.94-28.5c-4.45-4.48-9-8.83-13.76-12.95a133.87,133.87,0,0,0-14.73-11.34,46.5,46.5,0,0,0-7.69-4.12,15.09,15.09,0,0,0-3.52-1,3.2,3.2,0,0,0-1.87.15c-.18.06-.5.44-.83,1.34a12.44,12.44,0,0,0-.58,3.46,44.25,44.25,0,0,0,.67,8.64,136.29,136.29,0,0,0,4.53,18,128.75,128.75,0,0,0,6.69,17.37,140.15,140.15,0,0,0,9.06,16.28c3.37,5.26,7.07,10.29,11,15.34l3,3.89c.5.68,1,1.37,1.51,2.11a22.39,22.39,0,0,1,1.57,2.65,8.39,8.39,0,0,1,.79,2.51,7.1,7.1,0,0,1,0,1.17,5.55,5.55,0,0,1-.38,1.65,5.32,5.32,0,0,1-2.68,2.84,4.45,4.45,0,0,1-.83.3,5.09,5.09,0,0,1-.75.16,5.94,5.94,0,0,1-1.16,0l-.48,0-.38-.06c-.27-.05-.47-.1-.66-.15a11,11,0,0,1-1.84-.7,39.33,39.33,0,0,1-4.72-2.78c-2.78-1.85-5.38-3.7-8-5.52s-5.23-3.61-7.87-5.35a195.48,195.48,0,0,0-33-17.87,176.21,176.21,0,0,0-36-10.36,160,160,0,0,0-18.57-2.24,89.86,89.86,0,0,0-18.25.5,32.87,32.87,0,0,0-4.12.88,11.56,11.56,0,0,0-3.14,1.31c-.37.22-.46.41-.47.37s.06-.05.07-.1,0-.09,0-.15a.31.31,0,0,0,0-.21c0-.05,0-.08,0-.12l0-.06,0,0a0,0,0,0,1,0,.06,4,4,0,0,1,.2.41l.39.6.54.68a50.17,50.17,0,0,0,6.47,5.82c2.44,1.91,5,3.79,7.57,5.65q15.52,11.2,31.44,22t32.06,21.1L7379,7078c5.41,3.51,10.81,7,16.19,10.93,1.35,1,2.7,2.06,4.08,3.3a20.75,20.75,0,0,1,2.14,2.21c.18.21.39.5.57.75a10.48,10.48,0,0,1,.61,1c.1.21.19.37.3.63s.19.52.28.79.15.69.2,1a8,8,0,0,1,0,1.29,6.38,6.38,0,0,1-.36,1.43,5.76,5.76,0,0,1-.73,1.29,5.58,5.58,0,0,1-.9,1,6.86,6.86,0,0,1-.88.63,8,8,0,0,1-2.55.92,17.18,17.18,0,0,1-3.31.24,47.59,47.59,0,0,1-5.3-.43c-6.65-.89-12.91-2.17-19.23-3.35-12.59-2.42-25.1-4.7-37.69-6.35l.59,0-5.07-.54-4.56-.44c-3-.26-6.09-.5-9.15-.7q-9.16-.61-18.36-.88-18.39-.53-36.78.21c-12.25.49-24.48,1.43-36.62,2.94l-4.56.56-4.53.68c-3,.44-6,1-9,1.45l-9,1.5c-3,.55-6,1-9,1.65-12,2.35-23.94,5.23-35.7,8.74-1.48.41-3,.85-4.4,1.33l-4.39,1.38-4.4,1.39-4.35,1.51c-2.89,1-5.83,2-8.7,3.06l-8.63,3.25c-11.44,4.55-22.79,9.38-33.84,14.87-5.61,2.6-11,5.54-16.52,8.39-2.77,1.39-5.42,3-8.13,4.46Z" transform="translate(-6687 -6687)"/><path class="cls-3" d="M7042.88,7117.32q0-7.68-7.37-14.47-10.61-9.65-29.27-9.65-16.36,0-36.18,6.8a57.56,57.56,0,0,0-18,9.64q-11.76,9.66-11.76,19.3,0,12.95,17.28,23.24,6.47,3.73,25.93,12.17t28.46,13.7q13.6,7.9,18.78,16.89t5.19,16.66q0,11-7.61,22.37-13.36,20.39-39.17,35.08-29.73,17.1-71.67,17.1-40.34,0-64.07-19.52-18.44-14.9-18.43-38.37,0-14.9,11.4-32.88t28-25.44c2.31-.88,4-1.17,5.18-.88s.2,1.68-2.87,4.17a67.9,67.9,0,0,0-15.91,16.44,73.9,73.9,0,0,0-12.9,41.88,41,41,0,0,0,8.76,26.09q15.66,19.95,54.38,22.59,4.38.44,13,.44t23.51-3a116.61,116.61,0,0,0,28.69-9.76q29.73-14.91,38.48-38.59a36.87,36.87,0,0,0,2.77-13.6q0-14.9-14.06-26.31-7.59-5.7-31-15.23T6941,7159.63q-17.75-11.39-17.74-27,0-13.59,15.9-26.53,22.82-18.41,64.52-18.41,19.59,0,31.92,5.59t15.1,16.77a21.9,21.9,0,0,1,.46,4.39q0,8.55-8.3,15.34-5.76,4.39-15.44,7c-2.76.74-4.3.44-4.6-.87q-.47-2.86,5.75-3.51,11.07-1.32,13.6-10.53A16.73,16.73,0,0,0,7042.88,7117.32Z" transform="translate(-6687 -6687)"/><path class="cls-2" d="M7097.26,7256.33c0,4.1,1.54,6.14,4.62,6.14q10.81,0,30.64-38.59,1.62-3.07,2.89-2.41a2,2,0,0,1,1.26,1.75c0,.73-.88,2.82-2.64,6.25s-3.54,6.72-5.31,9.87-4.34,7.27-7.72,12.39q-10.6,15.35-22.58,15.34a14.76,14.76,0,0,1-12.45-6.13,13,13,0,0,1-2.07-7.79,39.64,39.64,0,0,1,2.3-11.95q2.31-7,12.68-22.8,2.53-4,2.53-6.25c0-1.54-1.3-2.3-3.92-2.3s-7.6,3.28-15,9.86q-16.59,14.47-32.27,43.42-1.6,3.28-8.52,3.29-6.22.43-7.84,1.31,43.78-86.61,63.37-120.81,4.38-7.68,7.72-10.74a11.36,11.36,0,0,1,8-3.08,44.37,44.37,0,0,1,4.84.55,22.33,22.33,0,0,0,5.53.33q-6.92,6.8-24.77,37.61t-34.23,62.6a163.72,163.72,0,0,1,19.47-20.18,116.73,116.73,0,0,1,21.09-13.7q12.45-6.47,18.21-6.47a7.11,7.11,0,0,1,2.53.44Q7097.28,7241.64,7097.26,7256.33Z" transform="translate(-6687 -6687)"/><path class="cls-2" d="M7097.26,7256.33a8.54,8.54,0,0,0,.93,4.25,3.8,3.8,0,0,0,1.6,1.45,4.9,4.9,0,0,0,2.14.42,8.89,8.89,0,0,0,4.15-1.28,19.88,19.88,0,0,0,3.53-2.61,48.52,48.52,0,0,0,5.87-6.53c1.8-2.32,3.45-4.75,5.05-7.21,3.18-4.93,6.07-10,8.84-15.22l2.05-3.89a19,19,0,0,1,2.26-3.82,2.14,2.14,0,0,1,1-.65,1.4,1.4,0,0,1,1.15.28,2,2,0,0,1,1,2,22.4,22.4,0,0,1-1.67,4.11c-5.42,10.41-10.84,20.92-18.42,30a36.41,36.41,0,0,1-6.58,5.93,22.11,22.11,0,0,1-8.16,3.53,18,18,0,0,1-8.92-.42,15.15,15.15,0,0,1-7.28-5.21,10.58,10.58,0,0,1-2-4.15,18.56,18.56,0,0,1-.47-4.5,35.82,35.82,0,0,1,1.37-8.83,43.74,43.74,0,0,1,1.34-4.26c.53-1.4,1.14-2.76,1.78-4.09,1.31-2.66,2.74-5.24,4.24-7.78s3-5.05,4.62-7.54c.78-1.24,1.62-2.46,2.31-3.69a12.27,12.27,0,0,0,1.51-3.8,3,3,0,0,0,.05-.87.87.87,0,0,0-.23-.55,2.36,2.36,0,0,0-1.43-.62,6.86,6.86,0,0,0-1.91,0,7.19,7.19,0,0,0-1.85.65,39.45,39.45,0,0,0-7.09,4.82,115.84,115.84,0,0,0-12.68,12,137.79,137.79,0,0,0-10.78,13.74c-3.32,4.79-6.41,9.75-9.32,14.82l-2.16,3.81-1,1.91c-.38.64-.62,1.23-1.2,2.07a7.74,7.74,0,0,1-4.46,2.66,21.06,21.06,0,0,1-4.68.5h.09c-1.31.1-2.61.22-3.89.39-.64.08-1.27.18-1.87.31a7,7,0,0,0-1.54.48l-3.73,2,1.91-3.79,19.07-37.68c6.4-12.53,12.79-25.08,19.4-37.51s13.23-24.86,20.1-37.17q2.58-4.61,5.22-9.2a56.46,56.46,0,0,1,6.16-8.88,14.69,14.69,0,0,1,4.49-3.57,12.75,12.75,0,0,1,5.66-1.3,21.5,21.5,0,0,1,2.8.24l2.63.37a22.19,22.19,0,0,0,4.93.3l3.51-.33-2.48,2.47a51.6,51.6,0,0,0-4.56,5.42c-1.44,1.92-2.82,3.89-4.17,5.89-2.71,4-5.3,8.09-7.85,12.21-5.09,8.24-10,16.62-14.83,25q-14.51,25.22-28,51l-.88-.59c4.07-4.79,8.29-9.47,12.78-13.87,2.26-2.2,4.58-4.34,7-6.34s5-3.87,7.59-5.62a143.06,143.06,0,0,1,16.37-9.34,72,72,0,0,1,8.7-3.65,27.83,27.83,0,0,1,4.59-1.17,9.17,9.17,0,0,1,4.73.27l.19.08-.11.16c-2.93,4.92-5.85,9.84-8.66,14.82s-5.58,10-8.18,15.09-5.08,10.26-7.25,15.56c-.56,1.31-1,2.67-1.54,4s-1,2.7-1.34,4.08A31.72,31.72,0,0,0,7097.26,7256.33Zm0,0a31.81,31.81,0,0,1,1.48-8.43c.37-1.39.88-2.73,1.32-4.09s1-2.69,1.53-4c2.14-5.31,4.6-10.49,7.17-15.6s5.32-10.14,8.11-15.14,5.69-9.94,8.6-14.87l.08.25a8.8,8.8,0,0,0-4.56-.24,27.58,27.58,0,0,0-4.52,1.18,71.86,71.86,0,0,0-8.63,3.67,131.26,131.26,0,0,0-16.23,9.45c-2.58,1.77-5.08,3.66-7.47,5.67s-4.66,4.17-6.87,6.38c-4.42,4.44-8.56,9.15-12.55,14l-3,3.66,2.15-4.25q13.17-26,27.39-51.41c4.75-8.47,9.54-16.92,14.55-25.26,2.5-4.17,5.06-8.31,7.74-12.38,1.34-2,2.72-4.06,4.17-6a52.93,52.93,0,0,1,4.74-5.77l1,2.15a23.77,23.77,0,0,1-5.59-.28l-2.59-.35a20.44,20.44,0,0,0-2.45-.21,10.34,10.34,0,0,0-4.54,1.06,12.22,12.22,0,0,0-3.68,3,53.51,53.51,0,0,0-5.8,8.48c-1.73,3-3.45,6.11-5.15,9.18-6.8,12.3-13.38,24.74-19.89,37.2l-19.46,37.46-19.24,37.57-1.82-1.77a9.33,9.33,0,0,1,2.26-.73c.7-.14,1.39-.25,2.07-.34,1.36-.17,2.71-.29,4.06-.38h.09a18.46,18.46,0,0,0,4.06-.4,5.2,5.2,0,0,0,3-1.68l4.28-7.53c3-5.08,6.19-10.06,9.61-14.88a141.63,141.63,0,0,1,11.13-13.82,117,117,0,0,1,13.06-12,40.88,40.88,0,0,1,7.51-5,9.08,9.08,0,0,1,2.31-.76,8.17,8.17,0,0,1,2.48.06,4.07,4.07,0,0,1,2.46,1.23,2.66,2.66,0,0,1,.59,1.46,4.69,4.69,0,0,1-.07,1.32c-.68,3.23-2.62,5.62-4.16,8.07s-3.18,4.92-4.69,7.43-3,5-4.28,7.63c-.64,1.3-1.26,2.62-1.79,4s-.94,2.73-1.34,4.12a35.18,35.18,0,0,0-1.44,8.52c-.05,2.84.39,5.81,2.11,8a14.09,14.09,0,0,0,6.76,5,17.08,17.08,0,0,0,8.49.5,21.53,21.53,0,0,0,7.93-3.31,36.12,36.12,0,0,0,6.54-5.76c3.95-4.31,6.95-9.39,10.08-14.35.76-1.25,1.52-2.51,2.23-3.79l2.1-3.87,2.09-3.87c.7-1.29,1.4-2.58,2-3.9a22.09,22.09,0,0,0,1.65-4,1.62,1.62,0,0,0-.85-1.69,1,1,0,0,0-.9-.24,1.92,1.92,0,0,0-.84.56,19.25,19.25,0,0,0-2.22,3.73l-2.07,3.89c-2.8,5.17-5.72,10.27-8.93,15.19-1.61,2.46-3.28,4.88-5.08,7.2a49.51,49.51,0,0,1-5.93,6.52,20.1,20.1,0,0,1-3.55,2.6,9,9,0,0,1-4.18,1.26,4.79,4.79,0,0,1-2.15-.43,3.67,3.67,0,0,1-1.6-1.47A8.48,8.48,0,0,1,7097.26,7256.33Z" transform="translate(-6687 -6687)"/><path class="cls-3" d="M7141.74,7261.37q4.38,0,9.22-4.16,8.52-8.11,21.66-33.11,1.6-3.29,3.23-2a1.91,1.91,0,0,1,.46,1.42q0,1-1.85,4.82c-1.23,2.56-2.34,4.87-3.34,6.91s-2.92,5.37-5.76,10a70.33,70.33,0,0,1-7.72,10.63q-9.45,10.3-17.86,10.31t-12.1-4.83a17.23,17.23,0,0,1-3.69-10.74,33.17,33.17,0,0,1,3-12.94l14.75-35.74a10.81,10.81,0,0,0,.46-3.51q0-2.19-2.76-5.7l12.67-.21q5.31,0,6.22,1.86t-1.38,5.81l-18.44,41q-3.92,8.11-3.92,13.81Q7134.59,7261.37,7141.74,7261.37Zm22.59-80.47a11,11,0,0,1-7.15,2.63,7.79,7.79,0,0,1-8.07-9,10.53,10.53,0,0,1,3.92-6.35,11,11,0,0,1,7.14-2.63c2.62,0,6.62-12.59,8.23-10.84s.3,17.34-.16,19.82A10.5,10.5,0,0,1,7164.33,7180.9Z" transform="translate(-6687 -6687)"/><path class="cls-2" d="M7275.63,7189.67l-1.15,3.73q-10.15,32-18.44,46.92-15,26.31-32.72,26.31-8.31,0-11.29-4.05a15.59,15.59,0,0,1-3.34-7.35,55.73,55.73,0,0,1-.35-5.7,46,46,0,0,1,2.07-12.93q-17.06,29.59-30.64,29.6a16.37,16.37,0,0,1-9.23-2.75,11.15,11.15,0,0,1-5.06-7.34,4.76,4.76,0,0,1-.7-2.63q0-9.42,8.53-22.81c-2.46,0-3.15-1.16-2.08-3.5l4.15-7.68q11.29-21,12.91-24.11,2.29-4.6,9-4.61h14.06q-8.31,5.7-16.71,22t-12.91,25.54q-4.5,9.21-4.49,14.14t1.72,7a5.59,5.59,0,0,0,4.5,2.08c1.84,0,4.07-1.2,6.69-3.62a64,64,0,0,0,7.14-7.78q3.23-4.15,6.56-9.43t6.11-10q2.78-4.71,6-11c2.15-4.16,3.84-7.42,5.07-9.75q6.69-12.72,7.38-14.69,2.07-4.6,8.76-4.61h14.05a20.57,20.57,0,0,1-2.53,1.76,19.39,19.39,0,0,0-6.69,6.35q-10.36,16.46-14.51,26.53-9.23,22.36-9.23,28.73,0,7.89,6.23,8.11h1.16q16.59,0,32.72-38.15a27.62,27.62,0,0,1-3.23-12.06,32.88,32.88,0,0,1,1.38-9.87q3.91-12.7,12.45-15.57a7.9,7.9,0,0,1,3-.65Q7275.63,7186,7275.63,7189.67Z" transform="translate(-6687 -6687)"/><path class="cls-2" d="M7275.78,7189.69c-3.37,11-7,21.92-11.16,32.64-2.12,5.34-4.37,10.64-7,15.76-.66,1.28-1.34,2.56-2.08,3.79l-1.1,1.86-1.16,1.83a80.35,80.35,0,0,1-5,7,43.71,43.71,0,0,1-13,11.38,26.38,26.38,0,0,1-8.25,2.83,25.47,25.47,0,0,1-8.75-.14,12.84,12.84,0,0,1-4.18-1.56,8.22,8.22,0,0,1-1.79-1.43,14.1,14.1,0,0,1-1.38-1.77,19,19,0,0,1-2.09-3.9,11.34,11.34,0,0,1-.61-2.18c-.12-.77-.16-1.45-.23-2.18a40.36,40.36,0,0,1,.06-8.72,52.42,52.42,0,0,1,1.78-8.52l1.17.5a145.08,145.08,0,0,1-8.54,13.35c-1.59,2.12-3.19,4.23-5,6.2-.86,1-1.83,1.94-2.75,2.9s-1.95,1.83-3,2.65a24.77,24.77,0,0,1-7,4.06,15.88,15.88,0,0,1-8.17.62,17,17,0,0,1-7.48-3.37,12.37,12.37,0,0,1-2.81-3.13,12,12,0,0,1-1.53-3.93l.11.29a6.17,6.17,0,0,1-.82-3.77,24.41,24.41,0,0,1,.36-3.53,36.09,36.09,0,0,1,1.88-6.75,70.31,70.31,0,0,1,6.35-12.32l.77,1.39a4.33,4.33,0,0,1-2.52-.63,2.3,2.3,0,0,1-.9-1.4,3.52,3.52,0,0,1,0-1.42,7.07,7.07,0,0,1,.39-1.15c.16-.39.33-.64.49-1l1-1.83,3.92-7.31,7.76-14.6,3.89-7.3a8.72,8.72,0,0,1,3-3.48,10.65,10.65,0,0,1,4.26-1.57,26.43,26.43,0,0,1,4.29-.21h4.14l8.28,0h3.48l-2.87,2a34.64,34.64,0,0,0-7.14,7,73.65,73.65,0,0,0-5.71,8.42c-1.74,2.93-3.3,6-4.83,9l-4.64,9.24-4.63,9.23-2.3,4.62c-.74,1.53-1.43,3.08-2.05,4.65-1.21,3.13-2.28,6.35-2.11,9.5a11.56,11.56,0,0,0,.91,4.49,4,4,0,0,0,.52.83,4.82,4.82,0,0,0,.73.7,4,4,0,0,0,1.76.8,5,5,0,0,0,1,.08,3.5,3.5,0,0,0,.93-.14,7.57,7.57,0,0,0,2-.93,22.27,22.27,0,0,0,3.75-3.1,63.44,63.44,0,0,0,6.67-7.6c2-2.72,4-5.55,5.77-8.43l5.35-8.8c.93-1.45,1.67-3,2.51-4.48l2.46-4.51c1.66-3,3.21-6.08,4.8-9.14l4.76-9.17,2.33-4.59,1.13-2.3c.36-.75.75-1.57,1-2.2l0-.08,0-.05a9,9,0,0,1,2.19-3,9.29,9.29,0,0,1,3.18-1.81,19.46,19.46,0,0,1,6.58-.71l12.29,0h4l-2.92,2.63a8.39,8.39,0,0,1-1.05.8l-.93.63c-.62.41-1.25.78-1.79,1.15a20.34,20.34,0,0,0-3.12,2.54,15,15,0,0,0-1.29,1.48c-.4.52-.71,1-1.11,1.68l-2.29,3.67c-3,4.89-5.91,9.83-8.52,14.91-1.31,2.53-2.53,5.09-3.62,7.72s-2.18,5.32-3.22,8a122.45,122.45,0,0,0-5.35,16.21,16.42,16.42,0,0,0-.46,4,9.86,9.86,0,0,0,.7,3.75,4,4,0,0,0,2.34,2.28,5.56,5.56,0,0,0,1.75.36,15.26,15.26,0,0,0,2,0,16,16,0,0,0,7.57-2.51c.56-.38,1.17-.7,1.71-1.14l1.64-1.28a41.71,41.71,0,0,0,3-2.94,72.37,72.37,0,0,0,9.79-13.91,169.69,169.69,0,0,0,7.59-15.43v.64a28,28,0,0,1-3.17-12.92,36,36,0,0,1,.74-6.62,38.09,38.09,0,0,1,2-6.31,30.28,30.28,0,0,1,3.19-5.83,18.23,18.23,0,0,1,4.75-4.64,13.84,13.84,0,0,1,3-1.51,11.28,11.28,0,0,1,3.22-.87,4.57,4.57,0,0,1,3.25.82,3.1,3.1,0,0,1,.93,1.44A5.34,5.34,0,0,1,7275.78,7189.69Zm-.29,0a3.62,3.62,0,0,0-1.09-2.8,4.25,4.25,0,0,0-3-.65,11,11,0,0,0-3.06.91,14,14,0,0,0-2.82,1.53,17.62,17.62,0,0,0-4.45,4.58,29,29,0,0,0-2.94,5.73,35.59,35.59,0,0,0-1.83,6.18,35.09,35.09,0,0,0-.56,6.4,27.15,27.15,0,0,0,3.27,12.23l.16.31-.14.33a167.87,167.87,0,0,1-7.4,15.72,74.14,74.14,0,0,1-9.83,14.47,42.27,42.27,0,0,1-3.13,3.15l-1.74,1.42c-.58.48-1.24.85-1.86,1.28a18.35,18.35,0,0,1-8.64,2.94,17.4,17.4,0,0,1-2.28.05,8.27,8.27,0,0,1-2.48-.49,6.19,6.19,0,0,1-2.24-1.39,7.37,7.37,0,0,1-1.49-2.14,12.32,12.32,0,0,1-1-4.68,18.54,18.54,0,0,1,.48-4.58,123.05,123.05,0,0,1,5.3-16.67c1-2.71,2.08-5.4,3.17-8.08s2.33-5.37,3.63-8c2.63-5.2,5.5-10.24,8.52-15.18l2.28-3.67a22.73,22.73,0,0,1,1.27-1.93,17.65,17.65,0,0,1,1.55-1.78,24,24,0,0,1,3.56-2.93c.65-.44,1.26-.81,1.84-1.19l.87-.58a7.33,7.33,0,0,0,.67-.51l1.05,2.64-12.29,0h-1.53c-.51,0-.95,0-1.42.05a11,11,0,0,0-2.62.5,5.73,5.73,0,0,0-3.53,3.15l0-.13c-.38,1-.74,1.71-1.13,2.52l-1.16,2.34-2.37,4.61-4.79,9.17c-1.6,3.05-3.16,6.11-4.86,9.14l-2.51,4.56c-.85,1.51-1.62,3.07-2.57,4.52l-5.45,8.84c-1.88,2.93-3.84,5.8-6,8.58a66.35,66.35,0,0,1-7,7.88,25.33,25.33,0,0,1-4.23,3.43,10.39,10.39,0,0,1-2.7,1.22,6.09,6.09,0,0,1-1.62.23,8.13,8.13,0,0,1-1.55-.14,6.67,6.67,0,0,1-2.89-1.34,7.72,7.72,0,0,1-1.12-1.09,7,7,0,0,1-.86-1.36,13.86,13.86,0,0,1-1.13-5.56,15.49,15.49,0,0,1,.12-2.79,21.69,21.69,0,0,1,.53-2.69,40.47,40.47,0,0,1,1.7-5.05c.66-1.63,1.39-3.23,2.15-4.8l2.35-4.62,4.69-9.22,4.7-9.22c1.54-3.07,3.16-6.17,5-9.15a76.55,76.55,0,0,1,5.93-8.65,36.92,36.92,0,0,1,7.65-7.37l.62,2-8.28,0h-4.14a25.45,25.45,0,0,0-4,.16,7.23,7.23,0,0,0-5.8,3.93l-3.93,7.29-7.85,14.58-3.94,7.26-1,1.81a6.4,6.4,0,0,0-.74,1.68,1.86,1.86,0,0,0,0,.64.41.41,0,0,0,.19.3,2.76,2.76,0,0,0,1.44.3H7175l-.89,1.39a68.19,68.19,0,0,0-6.25,12,34,34,0,0,0-1.84,6.42,22.81,22.81,0,0,0-.35,3.29,4.51,4.51,0,0,0,.54,2.82l.09.14,0,.15a10.15,10.15,0,0,0,3.72,6.11,15.42,15.42,0,0,0,6.75,3.08,14.34,14.34,0,0,0,7.38-.52,23.24,23.24,0,0,0,6.59-3.78c1-.78,2-1.67,2.93-2.53s1.85-1.82,2.7-2.81c1.76-1.91,3.36-4,4.94-6.06a145.27,145.27,0,0,0,8.55-13.16l2.73-4.68-1.57,5.18a43,43,0,0,0-1.91,16.78c.06.7.11,1.45.21,2.1a10.85,10.85,0,0,0,.53,2,18.56,18.56,0,0,0,1.95,3.68,12.61,12.61,0,0,0,1.25,1.64,7.63,7.63,0,0,0,1.56,1.26,12.22,12.22,0,0,0,3.84,1.46,24.33,24.33,0,0,0,16.36-2.49c5-2.63,9.21-6.68,12.82-11.07a76.11,76.11,0,0,0,5-6.94l1.16-1.8,1.1-1.84c.75-1.22,1.44-2.48,2.1-3.74,2.66-5.08,4.94-10.35,7.09-15.67C7268.37,7211.48,7272.06,7200.56,7275.49,7189.65Z" transform="translate(-6687 -6687)"/><path class="cls-3" d="M7278,7232.43a41.36,41.36,0,0,0-3.23,16.66q0,6.15,2.88,9.76a9.86,9.86,0,0,0,8.18,3.62q21,0,38-37.49,1.62-3.51,3.93-3.07a1,1,0,0,1,.92,1.09q0,.89-5.19,11.51a91.31,91.31,0,0,1-10.49,17.22q-11.74,15.35-29,15.34a22.78,22.78,0,0,1-15.67-5.7q-6.47-5.7-6.46-15.56a51.26,51.26,0,0,1,5-20.94,79.53,79.53,0,0,1,13.48-20.62,51.8,51.8,0,0,1,19.59-13.92,26.55,26.55,0,0,1,10.14-2.19,16.45,16.45,0,0,1,9,2.63c2.61,2,3.91,4.31,3.91,6.8q0,13.16-16.58,25.21-5.08,3.74-14.29,6.69T7278,7232.43Zm38.71-35.08c0-2.92-1.23-4.39-3.69-4.39q-6.45,0-19.58,15.13a112.23,112.23,0,0,0-13.83,20.61q3.91,0,11.41-2.63a44.54,44.54,0,0,0,13-7Q7316.67,7208.75,7316.68,7197.35Z" transform="translate(-6687 -6687)"/><path class="cls-3" d="M7342.47,7229.91q-1.85,5.15-3.11,9.87a35.91,35.91,0,0,0-1.27,9.42,17.39,17.39,0,0,0,2.31,8.77,7.83,7.83,0,0,0,7.37,4.06q8.3,0,16.14-10.64a222.89,222.89,0,0,0,16.58-27.07c1.23-2,2.39-2.85,3.46-2.41a1.66,1.66,0,0,1,.46,2.3q-.69,1.43-2.87,6.14c-1.47,3.14-2.54,5.33-3.23,6.57s-1.93,3.44-3.69,6.58a46.23,46.23,0,0,1-4.61,7c-1.3,1.53-3.07,3.51-5.3,5.92a28.78,28.78,0,0,1-6.34,5.37q-8.05,4.83-15.21,4.82t-11.06-3q-3.92-3-4.73-6.35a26.37,26.37,0,0,1-.8-6c0-1.76.08-4,.23-6.8a62.23,62.23,0,0,1,2.88-13.6c1.46-4.38,2.26-6.86,2.42-7.45a295.45,295.45,0,0,1,15.1-39.69q9.78-21.48,16.59-32.34t10.72-14.8c5.21-5.26,10.37-7.89,15.43-7.89q5.31,0,7.15,7.24a19.82,19.82,0,0,1,.23,3.28q0,7.45-5.53,18.86-19.83,41.88-47.25,65.78C7344.39,7224.46,7343.7,7226.48,7342.47,7229.91Zm27.19-41.77q11.54-17.32,16.94-29.49t5.42-16.56c0-2.92-.55-4.38-1.62-4.38q-2.3,0-8.75,8.66t-17.4,31.13q-11,22.48-17.86,39.36A174.81,174.81,0,0,0,7369.66,7188.14Z" transform="translate(-6687 -6687)"/><path class="cls-3" d="M7398.69,7229.91q-1.86,5.15-3.11,9.87a35.91,35.91,0,0,0-1.27,9.42,17.49,17.49,0,0,0,2.3,8.77A7.86,7.86,0,0,0,7404,7262q8.3,0,16.13-10.64a222.82,222.82,0,0,0,16.59-27.07c1.23-2,2.39-2.85,3.46-2.41a1.67,1.67,0,0,1,.46,2.3q-.69,1.43-2.88,6.14t-3.22,6.57c-.69,1.25-1.93,3.44-3.69,6.58a46.15,46.15,0,0,1-4.62,7c-1.3,1.53-3.06,3.51-5.29,5.92a28.78,28.78,0,0,1-6.34,5.37q-8.07,4.83-15.21,4.82t-11.06-3c-2.62-2-4.19-4.09-4.73-6.35a26.37,26.37,0,0,1-.8-6c0-1.76.07-4,.23-6.8a62.23,62.23,0,0,1,2.88-13.6c1.46-4.38,2.26-6.86,2.42-7.45a296.66,296.66,0,0,1,15.09-39.69q9.8-21.48,16.6-32.34t10.71-14.8q7.83-7.89,15.44-7.89,5.31,0,7.15,7.24a19.82,19.82,0,0,1,.23,3.28q0,7.45-5.53,18.86-19.83,41.88-47.25,65.78C7400.61,7224.46,7399.92,7226.48,7398.69,7229.91Zm27.19-41.77q11.52-17.32,16.94-29.49t5.42-16.56c0-2.92-.55-4.38-1.62-4.38q-2.31,0-8.75,8.66t-17.4,31.13q-10.95,22.48-17.86,39.36A174.81,174.81,0,0,0,7425.88,7188.14Z" transform="translate(-6687 -6687)"/><path class="cls-2" d="M7356.64,7133.1c-60.76,79.9-106.33,2.17-206.49,9.2" transform="translate(-6687 -6687)"/><path class="cls-2" d="M7356.76,7133.19a133.31,133.31,0,0,1-18.77,20.6,69,69,0,0,1-24.18,13.93c-.28.09-.55.2-.83.28l-.86.21-1.72.41c-1.15.25-2.28.6-3.44.76a63.45,63.45,0,0,1-7,.8l-3.52.17-3.53-.09-1.76-.05c-.59,0-1.17-.11-1.75-.16l-3.51-.34c-9.32-1.14-18.37-3.6-27.3-6.24s-17.74-5.57-26.62-8.21q-6.65-2-13.34-3.82c-2.22-.65-4.45-1.21-6.69-1.77l-3.36-.84-3.38-.75c-2.25-.51-4.5-1.05-6.77-1.45s-4.52-.92-6.8-1.25-4.56-.73-6.84-1.06l-6.88-.82c-2.29-.27-4.6-.38-6.91-.58-1.15-.07-2.3-.21-3.46-.23l-3.46-.11c-4.63-.29-9.26-.09-13.91-.13l0-.3c4.63-.42,9.27-.87,13.93-.93,2.33-.07,4.67-.13,7,0s4.67.07,7,.23a186.71,186.71,0,0,1,27.75,3.73l3.43.73,3.41.82c2.27.54,4.54,1.1,6.78,1.73s4.5,1.24,6.72,1.93,4.47,1.34,6.68,2.06c8.87,2.84,17.63,5.93,26.45,8.75s17.73,5.35,26.84,6.61l3.43.39c.57.06,1.14.14,1.71.18l1.72.07,3.43.15,3.44-.11a62.65,62.65,0,0,0,6.83-.67c1.14-.14,2.24-.47,3.36-.69l1.68-.37.84-.19c.27-.07.54-.17.81-.26a67.61,67.61,0,0,0,24-13.18,132.7,132.7,0,0,0,19.11-20.09Z" transform="translate(-6687 -6687)"/><circle class="cls-4" cx="797.99" cy="431.82" r="9.28"/></svg>